<mxfile host="app.diagrams.net" agent="Mozilla/5.0 (Macintosh; Intel Mac OS X 10_15_7) AppleWebKit/605.1.15 (KHTML, like Gecko) Version/17.6 Safari/605.1.15" version="25.0.1">
  <diagram name="Страница — 1" id="ouxu0SBAu6reOEj1xEUj">
    <mxGraphModel dx="1048" dy="734" grid="1" gridSize="10" guides="1" tooltips="1" connect="1" arrows="1" fold="1" page="1" pageScale="1" pageWidth="1654" pageHeight="2336" math="0" shadow="0">
      <root>
        <mxCell id="0" />
        <mxCell id="1" parent="0" />
        <mxCell id="_Z1mIjmzyKEjo15tx78J-3" style="edgeStyle=orthogonalEdgeStyle;rounded=0;orthogonalLoop=1;jettySize=auto;html=1;exitX=0.5;exitY=1;exitDx=0;exitDy=0;entryX=0.5;entryY=0;entryDx=0;entryDy=0;" edge="1" parent="1" source="_Z1mIjmzyKEjo15tx78J-1" target="_Z1mIjmzyKEjo15tx78J-2">
          <mxGeometry relative="1" as="geometry" />
        </mxCell>
        <mxCell id="_Z1mIjmzyKEjo15tx78J-1" value="Начало" style="rounded=1;whiteSpace=wrap;html=1;arcSize=50;" vertex="1" parent="1">
          <mxGeometry x="630" y="90" width="120" height="60" as="geometry" />
        </mxCell>
        <mxCell id="_Z1mIjmzyKEjo15tx78J-13" style="edgeStyle=orthogonalEdgeStyle;rounded=0;orthogonalLoop=1;jettySize=auto;html=1;exitX=0.5;exitY=1;exitDx=0;exitDy=0;entryX=0.5;entryY=0;entryDx=0;entryDy=0;" edge="1" parent="1" source="_Z1mIjmzyKEjo15tx78J-2" target="_Z1mIjmzyKEjo15tx78J-12">
          <mxGeometry relative="1" as="geometry" />
        </mxCell>
        <mxCell id="_Z1mIjmzyKEjo15tx78J-2" value="Ввод мощности графика&lt;div&gt;graph1 (n)&lt;/div&gt;" style="shape=parallelogram;perimeter=parallelogramPerimeter;whiteSpace=wrap;html=1;fixedSize=1;" vertex="1" parent="1">
          <mxGeometry x="620" y="180" width="140" height="60" as="geometry" />
        </mxCell>
        <mxCell id="_Z1mIjmzyKEjo15tx78J-7" style="edgeStyle=orthogonalEdgeStyle;rounded=0;orthogonalLoop=1;jettySize=auto;html=1;entryX=0.5;entryY=0;entryDx=0;entryDy=0;" edge="1" parent="1" source="_Z1mIjmzyKEjo15tx78J-4" target="_Z1mIjmzyKEjo15tx78J-6">
          <mxGeometry relative="1" as="geometry" />
        </mxCell>
        <mxCell id="_Z1mIjmzyKEjo15tx78J-4" value="Ввод номера&lt;div&gt;действия над&lt;/div&gt;&lt;div&gt;графиком&lt;/div&gt;" style="shape=parallelogram;perimeter=parallelogramPerimeter;whiteSpace=wrap;html=1;fixedSize=1;" vertex="1" parent="1">
          <mxGeometry x="625" y="740" width="120" height="60" as="geometry" />
        </mxCell>
        <mxCell id="_Z1mIjmzyKEjo15tx78J-9" style="edgeStyle=orthogonalEdgeStyle;rounded=0;orthogonalLoop=1;jettySize=auto;html=1;exitX=0;exitY=0.5;exitDx=0;exitDy=0;entryX=1;entryY=0.5;entryDx=0;entryDy=0;" edge="1" parent="1" source="_Z1mIjmzyKEjo15tx78J-6" target="_Z1mIjmzyKEjo15tx78J-8">
          <mxGeometry relative="1" as="geometry" />
        </mxCell>
        <mxCell id="_Z1mIjmzyKEjo15tx78J-10" value="1" style="edgeLabel;html=1;align=center;verticalAlign=middle;resizable=0;points=[];" vertex="1" connectable="0" parent="_Z1mIjmzyKEjo15tx78J-9">
          <mxGeometry x="0.0286" relative="1" as="geometry">
            <mxPoint as="offset" />
          </mxGeometry>
        </mxCell>
        <mxCell id="_Z1mIjmzyKEjo15tx78J-49" style="edgeStyle=orthogonalEdgeStyle;rounded=0;orthogonalLoop=1;jettySize=auto;html=1;" edge="1" parent="1" source="_Z1mIjmzyKEjo15tx78J-6">
          <mxGeometry relative="1" as="geometry">
            <mxPoint x="685" y="1210" as="targetPoint" />
          </mxGeometry>
        </mxCell>
        <mxCell id="_Z1mIjmzyKEjo15tx78J-50" value="остальное" style="edgeLabel;html=1;align=center;verticalAlign=middle;resizable=0;points=[];" vertex="1" connectable="0" parent="_Z1mIjmzyKEjo15tx78J-49">
          <mxGeometry x="0.0844" y="-4" relative="1" as="geometry">
            <mxPoint y="-1" as="offset" />
          </mxGeometry>
        </mxCell>
        <mxCell id="_Z1mIjmzyKEjo15tx78J-77" style="edgeStyle=orthogonalEdgeStyle;rounded=0;orthogonalLoop=1;jettySize=auto;html=1;exitX=1;exitY=0.5;exitDx=0;exitDy=0;entryX=0;entryY=0.5;entryDx=0;entryDy=0;" edge="1" parent="1" source="_Z1mIjmzyKEjo15tx78J-6" target="_Z1mIjmzyKEjo15tx78J-67">
          <mxGeometry relative="1" as="geometry">
            <Array as="points">
              <mxPoint x="950" y="880" />
              <mxPoint x="950" y="440" />
            </Array>
          </mxGeometry>
        </mxCell>
        <mxCell id="_Z1mIjmzyKEjo15tx78J-78" value="2" style="edgeLabel;html=1;align=center;verticalAlign=middle;resizable=0;points=[];" vertex="1" connectable="0" parent="_Z1mIjmzyKEjo15tx78J-77">
          <mxGeometry x="-0.0876" y="-1" relative="1" as="geometry">
            <mxPoint as="offset" />
          </mxGeometry>
        </mxCell>
        <mxCell id="_Z1mIjmzyKEjo15tx78J-6" value="Какой номер?" style="rhombus;whiteSpace=wrap;html=1;" vertex="1" parent="1">
          <mxGeometry x="620" y="840" width="130" height="80" as="geometry" />
        </mxCell>
        <mxCell id="_Z1mIjmzyKEjo15tx78J-29" style="edgeStyle=orthogonalEdgeStyle;rounded=0;orthogonalLoop=1;jettySize=auto;html=1;exitX=0.5;exitY=1;exitDx=0;exitDy=0;entryX=0.5;entryY=0;entryDx=0;entryDy=0;" edge="1" parent="1" source="_Z1mIjmzyKEjo15tx78J-8" target="_Z1mIjmzyKEjo15tx78J-28">
          <mxGeometry relative="1" as="geometry" />
        </mxCell>
        <mxCell id="_Z1mIjmzyKEjo15tx78J-8" value="&amp;nbsp;i=0" style="rounded=0;whiteSpace=wrap;html=1;" vertex="1" parent="1">
          <mxGeometry x="230" y="850" width="120" height="60" as="geometry" />
        </mxCell>
        <mxCell id="_Z1mIjmzyKEjo15tx78J-17" style="edgeStyle=orthogonalEdgeStyle;rounded=0;orthogonalLoop=1;jettySize=auto;html=1;exitX=0.5;exitY=1;exitDx=0;exitDy=0;entryX=0.5;entryY=0;entryDx=0;entryDy=0;" edge="1" parent="1" source="_Z1mIjmzyKEjo15tx78J-12" target="_Z1mIjmzyKEjo15tx78J-15">
          <mxGeometry relative="1" as="geometry" />
        </mxCell>
        <mxCell id="_Z1mIjmzyKEjo15tx78J-12" value="&amp;nbsp;i = 0" style="rounded=0;whiteSpace=wrap;html=1;" vertex="1" parent="1">
          <mxGeometry x="655" y="280" width="70" height="30" as="geometry" />
        </mxCell>
        <mxCell id="_Z1mIjmzyKEjo15tx78J-21" style="edgeStyle=orthogonalEdgeStyle;rounded=0;orthogonalLoop=1;jettySize=auto;html=1;" edge="1" parent="1" source="_Z1mIjmzyKEjo15tx78J-15" target="_Z1mIjmzyKEjo15tx78J-25">
          <mxGeometry relative="1" as="geometry">
            <mxPoint x="690" y="470" as="targetPoint" />
          </mxGeometry>
        </mxCell>
        <mxCell id="_Z1mIjmzyKEjo15tx78J-15" value="Ввод 1 и 2 элементов&lt;div&gt;пары&lt;br&gt;&lt;div&gt;&lt;br&gt;&lt;/div&gt;&lt;/div&gt;" style="shape=parallelogram;perimeter=parallelogramPerimeter;whiteSpace=wrap;html=1;fixedSize=1;" vertex="1" parent="1">
          <mxGeometry x="630" y="360" width="120" height="60" as="geometry" />
        </mxCell>
        <mxCell id="_Z1mIjmzyKEjo15tx78J-20" style="edgeStyle=orthogonalEdgeStyle;rounded=0;orthogonalLoop=1;jettySize=auto;html=1;exitX=0;exitY=0.5;exitDx=0;exitDy=0;" edge="1" parent="1" source="_Z1mIjmzyKEjo15tx78J-18">
          <mxGeometry relative="1" as="geometry">
            <mxPoint x="690" y="330" as="targetPoint" />
            <Array as="points">
              <mxPoint x="600" y="590" />
              <mxPoint x="600" y="330" />
            </Array>
          </mxGeometry>
        </mxCell>
        <mxCell id="_Z1mIjmzyKEjo15tx78J-24" value="да" style="edgeLabel;html=1;align=center;verticalAlign=middle;resizable=0;points=[];" vertex="1" connectable="0" parent="_Z1mIjmzyKEjo15tx78J-20">
          <mxGeometry x="-0.2254" y="-2" relative="1" as="geometry">
            <mxPoint as="offset" />
          </mxGeometry>
        </mxCell>
        <mxCell id="_Z1mIjmzyKEjo15tx78J-18" value="&amp;nbsp;i &amp;lt; n" style="rhombus;whiteSpace=wrap;html=1;" vertex="1" parent="1">
          <mxGeometry x="640" y="550" width="100" height="80" as="geometry" />
        </mxCell>
        <mxCell id="_Z1mIjmzyKEjo15tx78J-22" style="edgeStyle=orthogonalEdgeStyle;rounded=0;orthogonalLoop=1;jettySize=auto;html=1;entryX=0.536;entryY=0.002;entryDx=0;entryDy=0;entryPerimeter=0;" edge="1" parent="1" source="_Z1mIjmzyKEjo15tx78J-18" target="_Z1mIjmzyKEjo15tx78J-4">
          <mxGeometry relative="1" as="geometry" />
        </mxCell>
        <mxCell id="_Z1mIjmzyKEjo15tx78J-23" value="нет" style="edgeLabel;html=1;align=center;verticalAlign=middle;resizable=0;points=[];" vertex="1" connectable="0" parent="_Z1mIjmzyKEjo15tx78J-22">
          <mxGeometry x="0.0434" y="-2" relative="1" as="geometry">
            <mxPoint as="offset" />
          </mxGeometry>
        </mxCell>
        <mxCell id="_Z1mIjmzyKEjo15tx78J-26" style="edgeStyle=orthogonalEdgeStyle;rounded=0;orthogonalLoop=1;jettySize=auto;html=1;entryX=0.5;entryY=0;entryDx=0;entryDy=0;" edge="1" parent="1" source="_Z1mIjmzyKEjo15tx78J-25" target="_Z1mIjmzyKEjo15tx78J-18">
          <mxGeometry relative="1" as="geometry" />
        </mxCell>
        <mxCell id="_Z1mIjmzyKEjo15tx78J-25" value="&amp;nbsp;i++" style="rounded=0;whiteSpace=wrap;html=1;" vertex="1" parent="1">
          <mxGeometry x="645" y="470" width="90" height="30" as="geometry" />
        </mxCell>
        <mxCell id="_Z1mIjmzyKEjo15tx78J-31" style="edgeStyle=orthogonalEdgeStyle;rounded=0;orthogonalLoop=1;jettySize=auto;html=1;exitX=0.5;exitY=1;exitDx=0;exitDy=0;entryX=0.5;entryY=0;entryDx=0;entryDy=0;" edge="1" parent="1" source="_Z1mIjmzyKEjo15tx78J-28" target="_Z1mIjmzyKEjo15tx78J-30">
          <mxGeometry relative="1" as="geometry" />
        </mxCell>
        <mxCell id="_Z1mIjmzyKEjo15tx78J-28" value="меняем местами 1 и 2 элемент пары graph1[i]" style="rounded=0;whiteSpace=wrap;html=1;" vertex="1" parent="1">
          <mxGeometry x="230" y="950" width="120" height="60" as="geometry" />
        </mxCell>
        <mxCell id="_Z1mIjmzyKEjo15tx78J-33" style="edgeStyle=orthogonalEdgeStyle;rounded=0;orthogonalLoop=1;jettySize=auto;html=1;exitX=0.5;exitY=1;exitDx=0;exitDy=0;entryX=0.5;entryY=0;entryDx=0;entryDy=0;" edge="1" parent="1" source="_Z1mIjmzyKEjo15tx78J-30" target="_Z1mIjmzyKEjo15tx78J-32">
          <mxGeometry relative="1" as="geometry" />
        </mxCell>
        <mxCell id="_Z1mIjmzyKEjo15tx78J-30" value="&amp;nbsp;i++" style="rounded=0;whiteSpace=wrap;html=1;" vertex="1" parent="1">
          <mxGeometry x="230" y="1060" width="120" height="60" as="geometry" />
        </mxCell>
        <mxCell id="_Z1mIjmzyKEjo15tx78J-34" style="edgeStyle=orthogonalEdgeStyle;rounded=0;orthogonalLoop=1;jettySize=auto;html=1;" edge="1" parent="1" source="_Z1mIjmzyKEjo15tx78J-32">
          <mxGeometry relative="1" as="geometry">
            <mxPoint x="290" y="930" as="targetPoint" />
            <Array as="points">
              <mxPoint x="180" y="1208" />
              <mxPoint x="180" y="930" />
            </Array>
          </mxGeometry>
        </mxCell>
        <mxCell id="_Z1mIjmzyKEjo15tx78J-35" value="да" style="edgeLabel;html=1;align=center;verticalAlign=middle;resizable=0;points=[];" vertex="1" connectable="0" parent="_Z1mIjmzyKEjo15tx78J-34">
          <mxGeometry x="-0.1356" y="-1" relative="1" as="geometry">
            <mxPoint as="offset" />
          </mxGeometry>
        </mxCell>
        <mxCell id="_Z1mIjmzyKEjo15tx78J-45" style="edgeStyle=orthogonalEdgeStyle;rounded=0;orthogonalLoop=1;jettySize=auto;html=1;entryX=0.5;entryY=0;entryDx=0;entryDy=0;" edge="1" parent="1" source="_Z1mIjmzyKEjo15tx78J-32" target="_Z1mIjmzyKEjo15tx78J-37">
          <mxGeometry relative="1" as="geometry" />
        </mxCell>
        <mxCell id="_Z1mIjmzyKEjo15tx78J-46" value="нет" style="edgeLabel;html=1;align=center;verticalAlign=middle;resizable=0;points=[];" vertex="1" connectable="0" parent="_Z1mIjmzyKEjo15tx78J-45">
          <mxGeometry x="0.1538" y="1" relative="1" as="geometry">
            <mxPoint as="offset" />
          </mxGeometry>
        </mxCell>
        <mxCell id="_Z1mIjmzyKEjo15tx78J-32" value="&amp;nbsp;i&amp;lt;n?" style="rhombus;whiteSpace=wrap;html=1;" vertex="1" parent="1">
          <mxGeometry x="232.5" y="1168" width="115" height="80" as="geometry" />
        </mxCell>
        <mxCell id="_Z1mIjmzyKEjo15tx78J-36" style="edgeStyle=orthogonalEdgeStyle;rounded=0;orthogonalLoop=1;jettySize=auto;html=1;exitX=0.5;exitY=1;exitDx=0;exitDy=0;entryX=0.5;entryY=0;entryDx=0;entryDy=0;" edge="1" source="_Z1mIjmzyKEjo15tx78J-37" target="_Z1mIjmzyKEjo15tx78J-39" parent="1">
          <mxGeometry relative="1" as="geometry" />
        </mxCell>
        <mxCell id="_Z1mIjmzyKEjo15tx78J-37" value="&amp;nbsp;i=0" style="rounded=0;whiteSpace=wrap;html=1;" vertex="1" parent="1">
          <mxGeometry x="230" y="1300" width="120" height="60" as="geometry" />
        </mxCell>
        <mxCell id="_Z1mIjmzyKEjo15tx78J-38" style="edgeStyle=orthogonalEdgeStyle;rounded=0;orthogonalLoop=1;jettySize=auto;html=1;exitX=0.5;exitY=1;exitDx=0;exitDy=0;entryX=0.5;entryY=0;entryDx=0;entryDy=0;" edge="1" source="_Z1mIjmzyKEjo15tx78J-39" target="_Z1mIjmzyKEjo15tx78J-41" parent="1">
          <mxGeometry relative="1" as="geometry" />
        </mxCell>
        <mxCell id="_Z1mIjmzyKEjo15tx78J-39" value="выводим graph[i]" style="rounded=0;whiteSpace=wrap;html=1;" vertex="1" parent="1">
          <mxGeometry x="230" y="1400" width="120" height="60" as="geometry" />
        </mxCell>
        <mxCell id="_Z1mIjmzyKEjo15tx78J-40" style="edgeStyle=orthogonalEdgeStyle;rounded=0;orthogonalLoop=1;jettySize=auto;html=1;exitX=0.5;exitY=1;exitDx=0;exitDy=0;entryX=0.5;entryY=0;entryDx=0;entryDy=0;" edge="1" source="_Z1mIjmzyKEjo15tx78J-41" target="_Z1mIjmzyKEjo15tx78J-44" parent="1">
          <mxGeometry relative="1" as="geometry" />
        </mxCell>
        <mxCell id="_Z1mIjmzyKEjo15tx78J-41" value="&amp;nbsp;i++" style="rounded=0;whiteSpace=wrap;html=1;" vertex="1" parent="1">
          <mxGeometry x="230" y="1510" width="120" height="60" as="geometry" />
        </mxCell>
        <mxCell id="_Z1mIjmzyKEjo15tx78J-42" style="edgeStyle=orthogonalEdgeStyle;rounded=0;orthogonalLoop=1;jettySize=auto;html=1;" edge="1" source="_Z1mIjmzyKEjo15tx78J-44" parent="1">
          <mxGeometry relative="1" as="geometry">
            <mxPoint x="290" y="1380" as="targetPoint" />
            <Array as="points">
              <mxPoint x="180" y="1658" />
              <mxPoint x="180" y="1380" />
            </Array>
          </mxGeometry>
        </mxCell>
        <mxCell id="_Z1mIjmzyKEjo15tx78J-43" value="да" style="edgeLabel;html=1;align=center;verticalAlign=middle;resizable=0;points=[];" vertex="1" connectable="0" parent="_Z1mIjmzyKEjo15tx78J-42">
          <mxGeometry x="-0.1356" y="-1" relative="1" as="geometry">
            <mxPoint as="offset" />
          </mxGeometry>
        </mxCell>
        <mxCell id="_Z1mIjmzyKEjo15tx78J-47" style="edgeStyle=orthogonalEdgeStyle;rounded=0;orthogonalLoop=1;jettySize=auto;html=1;" edge="1" parent="1" source="_Z1mIjmzyKEjo15tx78J-44" target="_Z1mIjmzyKEjo15tx78J-48">
          <mxGeometry relative="1" as="geometry">
            <mxPoint x="590" y="1850" as="targetPoint" />
            <Array as="points">
              <mxPoint x="680" y="1658" />
            </Array>
          </mxGeometry>
        </mxCell>
        <mxCell id="_Z1mIjmzyKEjo15tx78J-81" value="нет" style="edgeLabel;html=1;align=center;verticalAlign=middle;resizable=0;points=[];" vertex="1" connectable="0" parent="_Z1mIjmzyKEjo15tx78J-47">
          <mxGeometry x="-0.2081" y="-3" relative="1" as="geometry">
            <mxPoint as="offset" />
          </mxGeometry>
        </mxCell>
        <mxCell id="_Z1mIjmzyKEjo15tx78J-44" value="&amp;nbsp;i&amp;lt;n?" style="rhombus;whiteSpace=wrap;html=1;" vertex="1" parent="1">
          <mxGeometry x="232.5" y="1618" width="115" height="80" as="geometry" />
        </mxCell>
        <mxCell id="_Z1mIjmzyKEjo15tx78J-48" value="конец" style="rounded=1;whiteSpace=wrap;html=1;" vertex="1" parent="1">
          <mxGeometry x="620" y="2240" width="120" height="60" as="geometry" />
        </mxCell>
        <mxCell id="_Z1mIjmzyKEjo15tx78J-52" value="выводим &amp;gt;:(" style="shape=parallelogram;perimeter=parallelogramPerimeter;whiteSpace=wrap;html=1;fixedSize=1;" vertex="1" parent="1">
          <mxGeometry x="625" y="1210" width="120" height="60" as="geometry" />
        </mxCell>
        <mxCell id="_Z1mIjmzyKEjo15tx78J-54" value="" style="endArrow=none;html=1;rounded=0;entryX=0.451;entryY=1.04;entryDx=0;entryDy=0;entryPerimeter=0;" edge="1" parent="1" target="_Z1mIjmzyKEjo15tx78J-52">
          <mxGeometry width="50" height="50" relative="1" as="geometry">
            <mxPoint x="680" y="1660" as="sourcePoint" />
            <mxPoint x="770" y="1490" as="targetPoint" />
          </mxGeometry>
        </mxCell>
        <mxCell id="_Z1mIjmzyKEjo15tx78J-66" style="edgeStyle=orthogonalEdgeStyle;rounded=0;orthogonalLoop=1;jettySize=auto;html=1;exitX=0.5;exitY=1;exitDx=0;exitDy=0;entryX=0.5;entryY=0;entryDx=0;entryDy=0;" edge="1" source="_Z1mIjmzyKEjo15tx78J-67" target="_Z1mIjmzyKEjo15tx78J-69" parent="1">
          <mxGeometry relative="1" as="geometry" />
        </mxCell>
        <mxCell id="_Z1mIjmzyKEjo15tx78J-67" value="Ввод мощности графика&lt;div&gt;graph2 (k)&lt;/div&gt;" style="shape=parallelogram;perimeter=parallelogramPerimeter;whiteSpace=wrap;html=1;fixedSize=1;" vertex="1" parent="1">
          <mxGeometry x="1107" y="410" width="140" height="60" as="geometry" />
        </mxCell>
        <mxCell id="_Z1mIjmzyKEjo15tx78J-68" style="edgeStyle=orthogonalEdgeStyle;rounded=0;orthogonalLoop=1;jettySize=auto;html=1;exitX=0.5;exitY=1;exitDx=0;exitDy=0;entryX=0.5;entryY=0;entryDx=0;entryDy=0;" edge="1" source="_Z1mIjmzyKEjo15tx78J-69" target="_Z1mIjmzyKEjo15tx78J-71" parent="1">
          <mxGeometry relative="1" as="geometry" />
        </mxCell>
        <mxCell id="_Z1mIjmzyKEjo15tx78J-69" value="&amp;nbsp;i = 0" style="rounded=0;whiteSpace=wrap;html=1;" vertex="1" parent="1">
          <mxGeometry x="1142" y="510" width="70" height="30" as="geometry" />
        </mxCell>
        <mxCell id="_Z1mIjmzyKEjo15tx78J-70" style="edgeStyle=orthogonalEdgeStyle;rounded=0;orthogonalLoop=1;jettySize=auto;html=1;" edge="1" source="_Z1mIjmzyKEjo15tx78J-71" target="_Z1mIjmzyKEjo15tx78J-76" parent="1">
          <mxGeometry relative="1" as="geometry">
            <mxPoint x="1177" y="700" as="targetPoint" />
          </mxGeometry>
        </mxCell>
        <mxCell id="_Z1mIjmzyKEjo15tx78J-71" value="Ввод 1 и 2 элементов&lt;div&gt;пары&lt;br&gt;&lt;div&gt;&lt;br&gt;&lt;/div&gt;&lt;/div&gt;" style="shape=parallelogram;perimeter=parallelogramPerimeter;whiteSpace=wrap;html=1;fixedSize=1;" vertex="1" parent="1">
          <mxGeometry x="1117" y="590" width="120" height="60" as="geometry" />
        </mxCell>
        <mxCell id="_Z1mIjmzyKEjo15tx78J-72" style="edgeStyle=orthogonalEdgeStyle;rounded=0;orthogonalLoop=1;jettySize=auto;html=1;exitX=0;exitY=0.5;exitDx=0;exitDy=0;" edge="1" source="_Z1mIjmzyKEjo15tx78J-74" parent="1">
          <mxGeometry relative="1" as="geometry">
            <mxPoint x="1177" y="560" as="targetPoint" />
            <Array as="points">
              <mxPoint x="1087" y="820" />
              <mxPoint x="1087" y="560" />
            </Array>
          </mxGeometry>
        </mxCell>
        <mxCell id="_Z1mIjmzyKEjo15tx78J-73" value="да" style="edgeLabel;html=1;align=center;verticalAlign=middle;resizable=0;points=[];" vertex="1" connectable="0" parent="_Z1mIjmzyKEjo15tx78J-72">
          <mxGeometry x="-0.2254" y="-2" relative="1" as="geometry">
            <mxPoint as="offset" />
          </mxGeometry>
        </mxCell>
        <mxCell id="_Z1mIjmzyKEjo15tx78J-79" style="edgeStyle=orthogonalEdgeStyle;rounded=0;orthogonalLoop=1;jettySize=auto;html=1;exitX=0.5;exitY=1;exitDx=0;exitDy=0;" edge="1" parent="1" source="_Z1mIjmzyKEjo15tx78J-74">
          <mxGeometry relative="1" as="geometry">
            <mxPoint x="1177.3333333333335" y="940" as="targetPoint" />
          </mxGeometry>
        </mxCell>
        <mxCell id="_Z1mIjmzyKEjo15tx78J-80" value="нет" style="edgeLabel;html=1;align=center;verticalAlign=middle;resizable=0;points=[];" vertex="1" connectable="0" parent="_Z1mIjmzyKEjo15tx78J-79">
          <mxGeometry x="0.1329" y="2" relative="1" as="geometry">
            <mxPoint as="offset" />
          </mxGeometry>
        </mxCell>
        <mxCell id="_Z1mIjmzyKEjo15tx78J-74" value="&amp;nbsp;i &amp;lt; k?" style="rhombus;whiteSpace=wrap;html=1;" vertex="1" parent="1">
          <mxGeometry x="1127" y="780" width="100" height="80" as="geometry" />
        </mxCell>
        <mxCell id="_Z1mIjmzyKEjo15tx78J-75" style="edgeStyle=orthogonalEdgeStyle;rounded=0;orthogonalLoop=1;jettySize=auto;html=1;entryX=0.5;entryY=0;entryDx=0;entryDy=0;" edge="1" source="_Z1mIjmzyKEjo15tx78J-76" target="_Z1mIjmzyKEjo15tx78J-74" parent="1">
          <mxGeometry relative="1" as="geometry" />
        </mxCell>
        <mxCell id="_Z1mIjmzyKEjo15tx78J-76" value="&amp;nbsp;i++" style="rounded=0;whiteSpace=wrap;html=1;" vertex="1" parent="1">
          <mxGeometry x="1132" y="700" width="90" height="30" as="geometry" />
        </mxCell>
        <mxCell id="_Z1mIjmzyKEjo15tx78J-92" style="edgeStyle=orthogonalEdgeStyle;rounded=0;orthogonalLoop=1;jettySize=auto;html=1;entryX=0.5;entryY=0;entryDx=0;entryDy=0;" edge="1" parent="1" source="_Z1mIjmzyKEjo15tx78J-83" target="_Z1mIjmzyKEjo15tx78J-91">
          <mxGeometry relative="1" as="geometry" />
        </mxCell>
        <mxCell id="_Z1mIjmzyKEjo15tx78J-83" value="&amp;nbsp;i=0" style="rounded=0;whiteSpace=wrap;html=1;" vertex="1" parent="1">
          <mxGeometry x="1117" y="890" width="120" height="60" as="geometry" />
        </mxCell>
        <mxCell id="_Z1mIjmzyKEjo15tx78J-84" style="edgeStyle=orthogonalEdgeStyle;rounded=0;orthogonalLoop=1;jettySize=auto;html=1;exitX=0.5;exitY=1;exitDx=0;exitDy=0;entryX=0.5;entryY=0;entryDx=0;entryDy=0;" edge="1" source="_Z1mIjmzyKEjo15tx78J-85" target="_Z1mIjmzyKEjo15tx78J-87" parent="1">
          <mxGeometry relative="1" as="geometry" />
        </mxCell>
        <mxCell id="_Z1mIjmzyKEjo15tx78J-85" value="в композицию compose записываем первый элемент graph[i] и второй элемент graph[j]" style="rounded=0;whiteSpace=wrap;html=1;" vertex="1" parent="1">
          <mxGeometry x="1068.25" y="1258" width="217.5" height="110" as="geometry" />
        </mxCell>
        <mxCell id="_Z1mIjmzyKEjo15tx78J-86" style="edgeStyle=orthogonalEdgeStyle;rounded=0;orthogonalLoop=1;jettySize=auto;html=1;exitX=0.5;exitY=1;exitDx=0;exitDy=0;entryX=0.5;entryY=0;entryDx=0;entryDy=0;" edge="1" source="_Z1mIjmzyKEjo15tx78J-87" target="_Z1mIjmzyKEjo15tx78J-90" parent="1">
          <mxGeometry relative="1" as="geometry" />
        </mxCell>
        <mxCell id="_Z1mIjmzyKEjo15tx78J-87" value="&amp;nbsp;j++" style="rounded=0;whiteSpace=wrap;html=1;" vertex="1" parent="1">
          <mxGeometry x="1117" y="1410" width="120" height="60" as="geometry" />
        </mxCell>
        <mxCell id="_Z1mIjmzyKEjo15tx78J-99" style="edgeStyle=orthogonalEdgeStyle;rounded=0;orthogonalLoop=1;jettySize=auto;html=1;" edge="1" parent="1">
          <mxGeometry relative="1" as="geometry">
            <mxPoint x="1177" y="1060" as="targetPoint" />
            <mxPoint x="1117.0000000000002" y="1539.9999999999995" as="sourcePoint" />
            <Array as="points">
              <mxPoint x="917" y="1540" />
              <mxPoint x="917" y="1060" />
              <mxPoint x="1175" y="1060" />
            </Array>
          </mxGeometry>
        </mxCell>
        <mxCell id="_Z1mIjmzyKEjo15tx78J-101" value="да" style="edgeLabel;html=1;align=center;verticalAlign=middle;resizable=0;points=[];" vertex="1" connectable="0" parent="_Z1mIjmzyKEjo15tx78J-99">
          <mxGeometry x="-0.2628" y="1" relative="1" as="geometry">
            <mxPoint as="offset" />
          </mxGeometry>
        </mxCell>
        <mxCell id="_Z1mIjmzyKEjo15tx78J-100" style="edgeStyle=orthogonalEdgeStyle;rounded=0;orthogonalLoop=1;jettySize=auto;html=1;" edge="1" parent="1" source="_Z1mIjmzyKEjo15tx78J-90">
          <mxGeometry relative="1" as="geometry">
            <mxPoint x="1174.5" y="1650" as="targetPoint" />
          </mxGeometry>
        </mxCell>
        <mxCell id="_Z1mIjmzyKEjo15tx78J-102" value="нет" style="edgeLabel;html=1;align=center;verticalAlign=middle;resizable=0;points=[];" vertex="1" connectable="0" parent="_Z1mIjmzyKEjo15tx78J-100">
          <mxGeometry x="0.1359" y="-1" relative="1" as="geometry">
            <mxPoint x="1" y="-9" as="offset" />
          </mxGeometry>
        </mxCell>
        <mxCell id="_Z1mIjmzyKEjo15tx78J-90" value="&amp;nbsp;j&amp;lt;k?" style="rhombus;whiteSpace=wrap;html=1;" vertex="1" parent="1">
          <mxGeometry x="1117" y="1500" width="115" height="80" as="geometry" />
        </mxCell>
        <mxCell id="_Z1mIjmzyKEjo15tx78J-98" style="edgeStyle=orthogonalEdgeStyle;rounded=0;orthogonalLoop=1;jettySize=auto;html=1;entryX=0.5;entryY=0;entryDx=0;entryDy=0;" edge="1" parent="1" source="_Z1mIjmzyKEjo15tx78J-91" target="_Z1mIjmzyKEjo15tx78J-93">
          <mxGeometry relative="1" as="geometry" />
        </mxCell>
        <mxCell id="_Z1mIjmzyKEjo15tx78J-91" value="j=o" style="rounded=0;whiteSpace=wrap;html=1;" vertex="1" parent="1">
          <mxGeometry x="1117" y="990" width="120" height="60" as="geometry" />
        </mxCell>
        <mxCell id="_Z1mIjmzyKEjo15tx78J-94" style="edgeStyle=orthogonalEdgeStyle;rounded=0;orthogonalLoop=1;jettySize=auto;html=1;exitX=0.5;exitY=1;exitDx=0;exitDy=0;entryX=0.5;entryY=0;entryDx=0;entryDy=0;" edge="1" parent="1" source="_Z1mIjmzyKEjo15tx78J-93" target="_Z1mIjmzyKEjo15tx78J-85">
          <mxGeometry relative="1" as="geometry" />
        </mxCell>
        <mxCell id="_Z1mIjmzyKEjo15tx78J-95" value="да" style="edgeLabel;html=1;align=center;verticalAlign=middle;resizable=0;points=[];" vertex="1" connectable="0" parent="_Z1mIjmzyKEjo15tx78J-94">
          <mxGeometry x="0.2091" y="2" relative="1" as="geometry">
            <mxPoint as="offset" />
          </mxGeometry>
        </mxCell>
        <mxCell id="_Z1mIjmzyKEjo15tx78J-96" style="edgeStyle=orthogonalEdgeStyle;rounded=0;orthogonalLoop=1;jettySize=auto;html=1;exitX=0;exitY=0.5;exitDx=0;exitDy=0;" edge="1" parent="1" source="_Z1mIjmzyKEjo15tx78J-93">
          <mxGeometry relative="1" as="geometry">
            <mxPoint x="1177" y="1390" as="targetPoint" />
            <Array as="points">
              <mxPoint x="1007" y="1140" />
              <mxPoint x="1007" y="1390" />
            </Array>
          </mxGeometry>
        </mxCell>
        <mxCell id="_Z1mIjmzyKEjo15tx78J-97" value="нет" style="edgeLabel;html=1;align=center;verticalAlign=middle;resizable=0;points=[];" vertex="1" connectable="0" parent="_Z1mIjmzyKEjo15tx78J-96">
          <mxGeometry x="-0.254" y="-3" relative="1" as="geometry">
            <mxPoint as="offset" />
          </mxGeometry>
        </mxCell>
        <mxCell id="_Z1mIjmzyKEjo15tx78J-93" value="второй элемент graph[i] = первому элементу graph[j]?" style="rhombus;whiteSpace=wrap;html=1;" vertex="1" parent="1">
          <mxGeometry x="1087" y="1080" width="180" height="120" as="geometry" />
        </mxCell>
        <mxCell id="_Z1mIjmzyKEjo15tx78J-104" style="edgeStyle=orthogonalEdgeStyle;rounded=0;orthogonalLoop=1;jettySize=auto;html=1;" edge="1" parent="1" source="_Z1mIjmzyKEjo15tx78J-103">
          <mxGeometry relative="1" as="geometry">
            <mxPoint x="1177" y="970" as="targetPoint" />
            <Array as="points">
              <mxPoint x="827" y="1690" />
              <mxPoint x="827" y="970" />
            </Array>
          </mxGeometry>
        </mxCell>
        <mxCell id="_Z1mIjmzyKEjo15tx78J-105" value="да" style="edgeLabel;html=1;align=center;verticalAlign=middle;resizable=0;points=[];" vertex="1" connectable="0" parent="_Z1mIjmzyKEjo15tx78J-104">
          <mxGeometry x="-0.1589" y="-4" relative="1" as="geometry">
            <mxPoint as="offset" />
          </mxGeometry>
        </mxCell>
        <mxCell id="_Z1mIjmzyKEjo15tx78J-116" style="edgeStyle=orthogonalEdgeStyle;rounded=0;orthogonalLoop=1;jettySize=auto;html=1;" edge="1" parent="1" source="_Z1mIjmzyKEjo15tx78J-103">
          <mxGeometry relative="1" as="geometry">
            <mxPoint x="1174.5" y="1780" as="targetPoint" />
          </mxGeometry>
        </mxCell>
        <mxCell id="_Z1mIjmzyKEjo15tx78J-117" value="нет" style="edgeLabel;html=1;align=center;verticalAlign=middle;resizable=0;points=[];" vertex="1" connectable="0" parent="_Z1mIjmzyKEjo15tx78J-116">
          <mxGeometry x="-0.0101" y="-1" relative="1" as="geometry">
            <mxPoint x="-1" y="-1" as="offset" />
          </mxGeometry>
        </mxCell>
        <mxCell id="_Z1mIjmzyKEjo15tx78J-103" value="&amp;nbsp;i&amp;lt;n?" style="rhombus;whiteSpace=wrap;html=1;" vertex="1" parent="1">
          <mxGeometry x="1114.5" y="1650" width="120" height="80" as="geometry" />
        </mxCell>
        <mxCell id="_Z1mIjmzyKEjo15tx78J-107" style="edgeStyle=orthogonalEdgeStyle;rounded=0;orthogonalLoop=1;jettySize=auto;html=1;exitX=0.5;exitY=1;exitDx=0;exitDy=0;entryX=0.5;entryY=0;entryDx=0;entryDy=0;" edge="1" source="_Z1mIjmzyKEjo15tx78J-108" target="_Z1mIjmzyKEjo15tx78J-110" parent="1">
          <mxGeometry relative="1" as="geometry" />
        </mxCell>
        <mxCell id="_Z1mIjmzyKEjo15tx78J-108" value="&amp;nbsp;i=0" style="rounded=0;whiteSpace=wrap;html=1;" vertex="1" parent="1">
          <mxGeometry x="1112" y="1782" width="120" height="60" as="geometry" />
        </mxCell>
        <mxCell id="_Z1mIjmzyKEjo15tx78J-109" style="edgeStyle=orthogonalEdgeStyle;rounded=0;orthogonalLoop=1;jettySize=auto;html=1;exitX=0.5;exitY=1;exitDx=0;exitDy=0;entryX=0.5;entryY=0;entryDx=0;entryDy=0;" edge="1" source="_Z1mIjmzyKEjo15tx78J-110" target="_Z1mIjmzyKEjo15tx78J-112" parent="1">
          <mxGeometry relative="1" as="geometry" />
        </mxCell>
        <mxCell id="_Z1mIjmzyKEjo15tx78J-110" value="выводим compose[i]" style="rounded=0;whiteSpace=wrap;html=1;" vertex="1" parent="1">
          <mxGeometry x="1112" y="1882" width="120" height="60" as="geometry" />
        </mxCell>
        <mxCell id="_Z1mIjmzyKEjo15tx78J-111" style="edgeStyle=orthogonalEdgeStyle;rounded=0;orthogonalLoop=1;jettySize=auto;html=1;exitX=0.5;exitY=1;exitDx=0;exitDy=0;entryX=0.5;entryY=0;entryDx=0;entryDy=0;" edge="1" source="_Z1mIjmzyKEjo15tx78J-112" target="_Z1mIjmzyKEjo15tx78J-115" parent="1">
          <mxGeometry relative="1" as="geometry" />
        </mxCell>
        <mxCell id="_Z1mIjmzyKEjo15tx78J-112" value="&amp;nbsp;i++" style="rounded=0;whiteSpace=wrap;html=1;" vertex="1" parent="1">
          <mxGeometry x="1112" y="1992" width="120" height="60" as="geometry" />
        </mxCell>
        <mxCell id="_Z1mIjmzyKEjo15tx78J-113" style="edgeStyle=orthogonalEdgeStyle;rounded=0;orthogonalLoop=1;jettySize=auto;html=1;" edge="1" source="_Z1mIjmzyKEjo15tx78J-115" parent="1">
          <mxGeometry relative="1" as="geometry">
            <mxPoint x="1172" y="1862" as="targetPoint" />
            <Array as="points">
              <mxPoint x="1062" y="2140" />
              <mxPoint x="1062" y="1862" />
            </Array>
          </mxGeometry>
        </mxCell>
        <mxCell id="_Z1mIjmzyKEjo15tx78J-114" value="да" style="edgeLabel;html=1;align=center;verticalAlign=middle;resizable=0;points=[];" vertex="1" connectable="0" parent="_Z1mIjmzyKEjo15tx78J-113">
          <mxGeometry x="-0.1356" y="-1" relative="1" as="geometry">
            <mxPoint as="offset" />
          </mxGeometry>
        </mxCell>
        <mxCell id="_Z1mIjmzyKEjo15tx78J-115" value="&amp;nbsp;i&amp;lt;n?" style="rhombus;whiteSpace=wrap;html=1;" vertex="1" parent="1">
          <mxGeometry x="1114.5" y="2100" width="115" height="80" as="geometry" />
        </mxCell>
        <mxCell id="_Z1mIjmzyKEjo15tx78J-118" value="" style="endArrow=none;html=1;rounded=0;entryX=0.5;entryY=1;entryDx=0;entryDy=0;" edge="1" parent="1" target="_Z1mIjmzyKEjo15tx78J-115">
          <mxGeometry width="50" height="50" relative="1" as="geometry">
            <mxPoint x="680" y="2180" as="sourcePoint" />
            <mxPoint x="1360" y="2200" as="targetPoint" />
          </mxGeometry>
        </mxCell>
        <mxCell id="_Z1mIjmzyKEjo15tx78J-119" value="нет" style="edgeLabel;html=1;align=center;verticalAlign=middle;resizable=0;points=[];" vertex="1" connectable="0" parent="_Z1mIjmzyKEjo15tx78J-118">
          <mxGeometry x="-0.0985" y="-2" relative="1" as="geometry">
            <mxPoint as="offset" />
          </mxGeometry>
        </mxCell>
      </root>
    </mxGraphModel>
  </diagram>
</mxfile>
